ffmpeg version N-82167-g5e96558 Copyright (c) 2000-2016 the FFmpeg developers
  built with gcc 5.4.0 (Ubuntu 5.4.0-6ubuntu1~16.04.2) 20160609
  configuration: --prefix=/root/ffmpeg_build --pkg-config-flags=--static --extra-cflags=-I/root/ffmpeg_build/include --extra-ldflags=-L/root/ffmpeg_build/lib --bindir=/root/bin --enable-gpl --enable-libass --enable-libfdk-aac --enable-libfreetype --enable-libmp3lame --enable-libopus --enable-libtheora --enable-libvorbis --enable-libx264 --enable-libx265 --enable-nonfree
  libavutil      55. 35.100 / 55. 35.100
  libavcodec     57. 65.100 / 57. 65.100
  libavformat    57. 57.100 / 57. 57.100
  libavdevice    57.  2.100 / 57.  2.100
  libavfilter     6. 66.100 /  6. 66.100
  libswscale      4.  3.100 /  4.  3.100
  libswresample   2.  4.100 /  2.  4.100
  libpostproc    54.  2.100 / 54.  2.100
Input #0, matroska,webm, from '/media/yubikiri/bot/queue/3AnimePahe_Detective_Conan_-_040_720p_Fansub.mkv':
  Metadata:
    title           : 3|Text||0|0
    ENCODER         : Lavf57.57.100
  Duration: 00:24:27.76, start: 0.000000, bitrate: 802 kb/s
    Stream #0:0: Video: mpeg4 (Advanced Simple Profile), yuv420p, 640x480 [SAR 1:1 DAR 4:3], 23.98 fps, 23.98 tbr, 1k tbn, 23.98 tbc (default)
    Metadata:
      DURATION        : 00:24:27.758000000
    Stream #0:1: Audio: mp3, 48000 Hz, stereo, s16p, 128 kb/s (default)
    Metadata:
      DURATION        : 00:24:27.696000000
[libx264 @ 0x360e6a0] using SAR=1/1
[libx264 @ 0x360e6a0] using cpu capabilities: MMX2 SSE2Fast SSSE3 SSE4.2 AVX FMA3 AVX2 LZCNT BMI2
[libx264 @ 0x360e6a0] profile High, level 3.1
[libx264 @ 0x360e6a0] 264 - core 148 r2643 5c65704 - H.264/MPEG-4 AVC codec - Copyleft 2003-2015 - http://www.videolan.org/x264.html - options: cabac=1 ref=8 deblock=1:1:1 analyse=0x3:0x133 me=umh subme=7 psy=1 psy_rd=0.00:0.00 mixed_ref=1 me_range=8 chroma_me=1 trellis=0 8x8dct=1 cqm=0 deadzone=21,11 fast_pskip=1 chroma_qp_offset=0 threads=8 lookahead_threads=2 sliced_threads=0 nr=0 decimate=1 interlaced=0 bluray_compat=0 constrained_intra=0 bframes=3 b_pyramid=2 b_adapt=2 b_bias=0 direct=1 weightb=1 open_gop=0 weightp=2 keyint=240 keyint_min=24 scenecut=40 intra_refresh=0 rc_lookahead=60 rc=crf mbtree=1 crf=27.0 qcomp=0.60 qpmin=0 qpmax=69 qpstep=4 ip_ratio=1.40 aq=1:1.00
[libfdk_aac @ 0x360f120] Note, the VBR setting is unsupported and only works with some parameter combinations
Output #0, mp4, to '/media/yubikiri/bot/queue/3AnimePahe_Detective_Conan_-_040_720p_Fansub.mkv_encoded.mp4':
  Metadata:
    encoder         : Lavf57.57.100
    Stream #0:0: Video: h264 (libx264) ([33][0][0][0] / 0x0021), yuv420p, 640x480 [SAR 1:1 DAR 4:3], q=-1--1, 23.98 fps, 24k tbn, 23.98 tbc (default)
    Metadata:
      encoder         : Lavc57.65.100 libx264
    Side data:
      cpb: bitrate max/min/avg: 0/0/0 buffer size: 0 vbv_delay: -1
    Stream #0:1: Audio: aac (libfdk_aac) (HE-AACv2) ([64][0][0][0] / 0x0040), 48000 Hz, stereo, s16, 48 kb/s (default)
    Metadata:
      encoder         : Lavc57.65.100 libfdk_aac
Stream mapping:
  Stream #0:0 -> #0:0 (mpeg4 (native) -> h264 (libx264))
  Stream #0:1 -> #0:1 (mp3 (native) -> aac (libfdk_aac))
Press [q] to stop, [?] for help
frame=  136 fps=0.0 q=32.0 size=     100kB time=00:00:05.82 bitrate= 140.1kbits/s dup=1 drop=0 speed=11.4x    frame=  202 fps=199 q=32.0 size=     273kB time=00:00:08.59 bitrate= 260.0kbits/s dup=1 drop=0 speed=8.48x    frame=  270 fps=178 q=32.0 size=     414kB time=00:00:11.45 bitrate= 295.9kbits/s dup=1 drop=0 speed=7.57x    frame=  358 fps=178 q=32.0 size=     579kB time=00:00:15.08 bitrate= 314.3kbits/s dup=1 drop=0 speed=7.49x    frame=  454 fps=180 q=32.0 size=     704kB time=00:00:19.09 bitrate= 302.2kbits/s dup=1 drop=0 speed=7.59x    frame=  564 fps=187 q=32.0 size=     883kB time=00:00:23.70 bitrate= 305.3kbits/s dup=1 drop=0 speed=7.85x    frame=  642 fps=182 q=32.0 size=    1059kB time=00:00:26.94 bitrate= 321.9kbits/s dup=1 drop=0 speed=7.65x    frame=  718 fps=178 q=32.0 size=    1235kB time=00:00:30.10 bitrate= 336.1kbits/s dup=1 drop=0 speed=7.48x    frame=  862 fps=190 q=32.0 size=    1409kB time=00:00:36.11 bitrate= 319.6kbits/s dup=1 drop=0 speed=7.97x    frame= 1022 fps=203 q=32.0 size=    1599kB time=00:00:42.77 bitrate= 306.3kbits/s dup=1 drop=0 speed= 8.5x    frame= 1107 fps=200 q=32.0 size=    1769kB time=00:00:46.31 bitrate= 312.9kbits/s dup=1 drop=0 speed=8.38x    frame= 1213 fps=201 q=32.0 size=    1931kB time=00:00:50.75 bitrate= 311.6kbits/s dup=1 drop=0 speed=8.41x    frame= 1294 fps=198 q=32.0 size=    2017kB time=00:00:54.12 bitrate= 305.3kbits/s dup=1 drop=0 speed=8.28x    frame= 1403 fps=199 q=32.0 size=    2223kB time=00:00:58.68 bitrate= 310.3kbits/s dup=1 drop=0 speed=8.34x    frame= 1526 fps=202 q=32.0 size=    2368kB time=00:01:03.80 bitrate= 304.1kbits/s dup=1 drop=0 speed=8.46x    frame= 1611 fps=200 q=32.0 size=    2529kB time=00:01:07.35 bitrate= 307.6kbits/s dup=1 drop=0 speed=8.36x    frame= 1690 fps=197 q=32.0 size=    2677kB time=00:01:10.63 bitrate= 310.5kbits/s dup=1 drop=0 speed=8.25x    frame= 1751 fps=193 q=32.0 size=    2839kB time=00:01:13.19 bitrate= 317.7kbits/s dup=1 drop=0 speed=8.05x    frame= 1862 fps=194 q=32.0 size=    2979kB time=00:01:17.80 bitrate= 313.6kbits/s dup=1 drop=0 speed=8.11x    frame= 1987 fps=197 q=32.0 size=    3116kB time=00:01:23.05 bitrate= 307.3kbits/s dup=1 drop=0 speed=8.23x    frame= 2069 fps=195 q=32.0 size=    3247kB time=00:01:26.46 bitrate= 307.6kbits/s dup=1 drop=0 speed=8.16x    frame= 2159 fps=195 q=32.0 size=    3379kB time=00:01:30.17 bitrate= 307.0kbits/s dup=1 drop=0 speed=8.13x    frame= 2250 fps=194 q=32.0 size=    3488kB time=00:01:34.01 bitrate= 303.9kbits/s dup=1 drop=0 speed=8.11x    frame= 2352 fps=194 q=32.0 size=    3652kB time=00:01:38.24 bitrate= 304.5kbits/s dup=1 drop=0 speed=8.12x    frame= 2452 fps=194 q=32.0 size=    3805kB time=00:01:42.42 bitrate= 304.3kbits/s dup=1 drop=0 speed=8.12x    frame= 2585 fps=197 q=32.0 size=    3944kB time=00:01:47.96 bitrate= 299.2kbits/s dup=1 drop=0 speed=8.23x    frame= 2665 fps=196 q=32.0 size=    4063kB time=00:01:51.29 bitrate= 299.1kbits/s dup=1 drop=0 speed=8.17x    frame= 2778 fps=197 q=32.0 size=    4188kB time=00:01:56.03 bitrate= 295.7kbits/s dup=1 drop=0 speed=8.21x    frame= 2853 fps=195 q=32.0 size=    4326kB time=00:01:59.14 bitrate= 297.4kbits/s dup=1 drop=0 speed=8.14x    frame= 2904 fps=192 q=32.0 size=    4470kB time=00:02:01.28 bitrate= 302.0kbits/s dup=1 drop=0 speed=8.01x    frame= 2977 fps=190 q=32.0 size=    4672kB time=00:02:04.31 bitrate= 307.9kbits/s dup=1 drop=0 speed=7.95x    frame= 3051 fps=189 q=32.0 size=    4829kB time=00:02:07.42 bitrate= 310.4kbits/s dup=1 drop=0 speed=7.88x    frame= 3141 fps=188 q=32.0 size=    4988kB time=00:02:11.17 bitrate= 311.5kbits/s dup=1 drop=0 speed=7.87x    frame= 3233 fps=188 q=32.0 size=    5106kB time=00:02:15.01 bitrate= 309.8kbits/s dup=1 drop=0 speed=7.86x    frame= 3351 fps=190 q=32.0 size=    5254kB time=00:02:19.92 bitrate= 307.6kbits/s dup=1 drop=0 speed=7.91x    frame= 3427 fps=188 q=32.0 size=    5296kB time=00:02:23.08 bitrate= 303.2kbits/s dup=1 drop=0 speed=7.87x    frame= 3492 fps=187 q=32.0 size=    5395kB time=00:02:25.81 bitrate= 303.1kbits/s dup=1 drop=0 speed= 7.8x    frame= 3548 fps=185 q=32.0 size=    5480kB time=00:02:28.16 bitrate= 303.0kbits/s dup=1 drop=0 speed=7.72x    frame= 3617 fps=184 q=32.0 size=    5572kB time=00:02:31.01 bitrate= 302.2kbits/s dup=1 drop=0 speed=7.67x    frame= 3702 fps=183 q=32.0 size=    5641kB time=00:02:34.56 bitrate= 299.0kbits/s dup=1 drop=0 speed=7.65x    frame= 3763 fps=182 q=32.0 size=    5738kB time=00:02:37.12 bitrate= 299.2kbits/s dup=1 drop=0 speed=7.59x    frame= 3855 fps=182 q=32.0 size=    5837kB time=00:02:40.91 bitrate= 297.2kbits/s dup=1 drop=0 speed=7.59x    frame= 3979 fps=183 q=32.0 size=    5919kB time=00:02:46.12 bitrate= 291.9kbits/s dup=1 drop=0 speed=7.66x    frame= 4045 fps=182 q=32.0 size=    5993kB time=00:02:48.85 bitrate= 290.7kbits/s dup=1 drop=0 speed= 7.6x    frame= 4098 fps=180 q=32.0 size=    6074kB time=00:02:51.07 bitrate= 290.9kbits/s dup=1 drop=0 speed=7.53x    frame= 4156 fps=179 q=32.0 size=    6171kB time=00:02:53.50 bitrate= 291.4kbits/s dup=1 drop=0 speed=7.47x    frame= 4202 fps=177 q=32.0 size=    6234kB time=00:02:55.42 bitrate= 291.1kbits/s dup=1 drop=0 speed=7.39x    frame= 4301 fps=177 q=32.0 size=    6322kB time=00:02:59.56 bitrate= 288.4kbits/s dup=1 drop=0 speed=7.41x    frame= 4391 fps=177 q=32.0 size=    6431kB time=00:03:03.31 bitrate= 287.4kbits/s dup=1 drop=0 speed=7.41x    frame= 4473 fps=177 q=32.0 size=    6532kB time=00:03:06.73 bitrate= 286.6kbits/s dup=1 drop=0 speed= 7.4x    frame= 4577 fps=178 q=32.0 size=    6620kB time=00:03:11.08 bitrate= 283.8kbits/s dup=1 drop=0 speed=7.42x    frame= 4682 fps=178 q=32.0 size=    6690kB time=00:03:15.43 bitrate= 280.4kbits/s dup=1 drop=0 speed=7.44x    frame= 4765 fps=178 q=32.0 size=    6762kB time=00:03:18.89 bitrate= 278.5kbits/s dup=1 drop=0 speed=7.43x    frame= 4849 fps=178 q=32.0 size=    6858kB time=00:03:22.43 bitrate= 277.5kbits/s dup=1 drop=0 speed=7.42x    frame= 4925 fps=177 q=32.0 size=    6909kB time=00:03:25.59 bitrate= 275.3kbits/s dup=1 drop=0 speed= 7.4x    frame= 5017 fps=177 q=32.0 size=    6989kB time=00:03:29.38 bitrate= 273.4kbits/s dup=1 drop=0 speed=7.41x    frame= 5118 fps=178 q=32.0 size=    7037kB time=00:03:33.61 bitrate= 269.9kbits/s dup=1 drop=0 speed=7.42x    frame= 5184 fps=177 q=32.0 size=    7099kB time=00:03:36.38 bitrate= 268.8kbits/s dup=1 drop=0 speed=7.39x    frame= 5281 fps=177 q=32.0 size=    7194kB time=00:03:40.39 bitrate= 267.4kbits/s dup=1 drop=0 speed=7.39x    frame= 5395 fps=178 q=32.0 size=    7262kB time=00:03:45.17 bitrate= 264.2kbits/s dup=1 drop=0 speed=7.42x    frame= 5522 fps=179 q=32.0 size=    7349kB time=00:03:50.46 bitrate= 261.2kbits/s dup=1 drop=0 speed=7.48x    frame= 5643 fps=180 q=32.0 size=    7440kB time=00:03:55.49 bitrate= 258.8kbits/s dup=1 drop=0 speed=7.52x    frame= 5751 fps=181 q=32.0 size=    7497kB time=00:04:00.02 bitrate= 255.9kbits/s dup=1 drop=0 speed=7.54x    frame= 5867 fps=181 q=32.0 size=    7614kB time=00:04:04.88 bitrate= 254.7kbits/s dup=1 drop=0 speed=7.57x    frame= 5983 fps=182 q=32.0 size=    7701kB time=00:04:09.70 bitrate= 252.6kbits/s dup=1 drop=0 speed= 7.6x    frame= 6053 fps=181 q=32.0 size=    7738kB time=00:04:12.60 bitrate= 250.9kbits/s dup=1 drop=0 speed=7.55x    frame= 6211 fps=183 q=32.0 size=    7852kB time=00:04:19.17 bitrate= 248.2kbits/s dup=1 drop=0 speed=7.63x    frame= 6280 fps=182 q=32.0 size=    7960kB time=00:04:22.08 bitrate= 248.8kbits/s dup=1 drop=0 speed= 7.6x    frame= 6434 fps=184 q=32.0 size=    8098kB time=00:04:28.52 bitrate= 247.1kbits/s dup=1 drop=0 speed=7.68x    frame= 6588 fps=186 q=32.0 size=    8279kB time=00:04:34.92 bitrate= 246.7kbits/s dup=1 drop=0 speed=7.75x    frame= 6792 fps=189 q=32.0 size=    8398kB time=00:04:43.45 bitrate= 242.7kbits/s dup=1 drop=0 speed=7.88x    frame= 6976 fps=191 q=32.0 size=    8536kB time=00:04:51.09 bitrate= 240.2kbits/s dup=1 drop=0 speed=7.98x    frame= 7169 fps=194 q=32.0 size=    8658kB time=00:04:59.20 bitrate= 237.1kbits/s dup=1 drop=0 speed=8.09x    frame= 7360 fps=196 q=32.0 size=    8784kB time=00:05:07.13 bitrate= 234.3kbits/s dup=1 drop=0 speed=8.19x    frame= 7558 fps=199 q=32.0 size=    8912kB time=00:05:15.37 bitrate= 231.5kbits/s dup=1 drop=0 speed= 8.3x    frame= 7770 fps=202 q=32.0 size=    9048kB time=00:05:24.24 bitrate= 228.6kbits/s dup=1 drop=0 speed=8.42x    frame= 7947 fps=204 q=32.0 size=    9165kB time=00:05:31.62 bitrate= 226.4kbits/s dup=1 drop=0 speed= 8.5x    frame= 8080 fps=205 q=32.0 size=    9255kB time=00:05:37.13 bitrate= 224.9kbits/s dup=1 drop=0 speed=8.53x    frame= 8252 fps=206 q=32.0 size=    9373kB time=00:05:44.34 bitrate= 223.0kbits/s dup=1 drop=0 speed=8.61x    frame= 8433 fps=208 q=32.0 size=    9493kB time=00:05:51.89 bitrate= 221.0kbits/s dup=1 drop=0 speed=8.69x    frame= 8623 fps=210 q=32.0 size=    9618kB time=00:05:59.78 bitrate= 219.0kbits/s dup=1 drop=0 speed=8.77x    frame= 8803 fps=212 q=32.0 size=    9746kB time=00:06:07.33 bitrate= 217.4kbits/s dup=1 drop=0 speed=8.85x    frame= 8962 fps=213 q=32.0 size=    9875kB time=00:06:13.95 bitrate= 216.3kbits/s dup=1 drop=0 speed= 8.9x    frame= 9093 fps=214 q=32.0 size=   10009kB time=00:06:19.41 bitrate= 216.1kbits/s dup=1 drop=0 speed=8.93x    frame= 9237 fps=215 q=32.0 size=   10105kB time=00:06:25.43 bitrate= 214.8kbits/s dup=1 drop=0 speed=8.96x    frame= 9385 fps=216 q=32.0 size=   10251kB time=00:06:31.57 bitrate= 214.5kbits/s dup=1 drop=0 speed=   9x    frame= 9472 fps=215 q=32.0 size=   10380kB time=00:06:35.24 bitrate= 215.1kbits/s dup=1 drop=0 speed=8.98x    frame= 9547 fps=214 q=32.0 size=   10523kB time=00:06:38.35 bitrate= 216.4kbits/s dup=1 drop=0 speed=8.95x    frame= 9662 fps=215 q=32.0 size=   10673kB time=00:06:43.13 bitrate= 216.9kbits/s dup=1 drop=0 speed=8.95x    frame= 9762 fps=214 q=32.0 size=   10792kB time=00:06:47.31 bitrate= 217.1kbits/s dup=1 drop=0 speed=8.94x    frame= 9938 fps=216 q=32.0 size=   10915kB time=00:06:54.65 bitrate= 215.6kbits/s dup=1 drop=0 speed=9.01x    frame=10124 fps=217 q=32.0 size=   11042kB time=00:07:02.42 bitrate= 214.1kbits/s dup=1 drop=0 speed=9.07x    frame=10310 fps=219 q=32.0 size=   11169kB time=00:07:10.18 bitrate= 212.7kbits/s dup=1 drop=0 speed=9.14x    frame=10475 fps=220 q=32.0 size=   11275kB time=00:07:17.05 bitrate= 211.3kbits/s dup=1 drop=0 speed=9.19x    frame=10620 fps=221 q=32.0 size=   11413kB time=00:07:23.11 bitrate= 211.0kbits/s dup=1 drop=0 speed=9.22x    frame=10780 fps=222 q=32.0 size=   11547kB time=00:07:29.77 bitrate= 210.3kbits/s dup=1 drop=0 speed=9.26x    frame=10911 fps=222 q=32.0 size=   11644kB time=00:07:35.23 bitrate= 209.5kbits/s dup=1 drop=0 speed=9.28x    frame=11084 fps=224 q=32.0 size=   11784kB time=00:07:42.44 bitrate= 208.8kbits/s dup=1 drop=0 speed=9.33x    frame=11265 fps=225 q=32.0 size=   11916kB time=00:07:49.99 bitrate= 207.7kbits/s dup=1 drop=0 speed=9.38x    frame=11390 fps=225 q=32.0 size=   12018kB time=00:07:55.24 bitrate= 207.2kbits/s dup=1 drop=0 speed=9.39x    frame=11465 fps=224 q=32.0 size=   12122kB time=00:07:58.35 bitrate= 207.6kbits/s dup=1 drop=0 speed=9.36x    frame=11544 fps=224 q=32.0 size=   12211kB time=00:08:01.64 bitrate= 207.7kbits/s dup=1 drop=0 speed=9.33x    frame=11638 fps=223 q=32.0 size=   12309kB time=00:08:05.56 bitrate= 207.7kbits/s dup=1 drop=0 speed=9.32x    frame=11743 fps=223 q=32.0 size=   12402kB time=00:08:09.92 bitrate= 207.4kbits/s dup=1 drop=0 speed=9.31x    frame=11852 fps=221 q=32.0 size=   12510kB time=00:08:14.48 bitrate= 207.2kbits/s dup=1 drop=0 speed=9.23x    frame=12017 fps=222 q=32.0 size=   12634kB time=00:08:21.35 bitrate= 206.4kbits/s dup=1 drop=0 speed=9.27x    frame=12114 fps=222 q=32.0 size=   12732kB time=00:08:25.40 bitrate= 206.4kbits/s dup=1 drop=0 speed=9.26x    frame=12189 fps=221 q=32.0 size=   12810kB time=00:08:28.52 bitrate= 206.4kbits/s dup=1 drop=0 speed=9.23x    frame=12270 fps=221 q=32.0 size=   12914kB time=00:08:31.93 bitrate= 206.7kbits/s dup=1 drop=0 speed=9.21x    frame=12345 fps=220 q=32.0 size=   13006kB time=00:08:35.05 bitrate= 206.9kbits/s dup=1 drop=0 speed=9.19x    frame=12413 fps=219 q=32.0 size=   13092kB time=00:08:37.91 bitrate= 207.1kbits/s dup=1 drop=0 speed=9.15x    frame=12532 fps=220 q=32.0 size=   13186kB time=00:08:42.85 bitrate= 206.6kbits/s dup=1 drop=0 speed=9.16x    frame=12644 fps=220 q=32.0 size=   13262kB time=00:08:47.51 bitrate= 206.0kbits/s dup=1 drop=0 speed=9.16x    frame=12747 fps=219 q=32.0 size=   13340kB time=00:08:51.81 bitrate= 205.5kbits/s dup=1 drop=0 speed=9.16x    frame=12794 fps=218 q=29.0 size=   13416kB time=00:08:53.78 bitrate= 205.9kbits/s dup=1 drop=0 speed=9.11x    frame=12904 fps=218 q=32.0 size=   13491kB time=00:08:58.34 bitrate= 205.3kbits/s dup=1 drop=0 speed= 9.1x    frame=12976 fps=218 q=32.0 size=   13583kB time=00:09:01.37 bitrate= 205.5kbits/s dup=1 drop=0 speed=9.08x    frame=13052 fps=217 q=32.0 size=   13673kB time=00:09:04.53 bitrate= 205.7kbits/s dup=1 drop=0 speed=9.05x    frame=13119 fps=216 q=32.0 size=   13752kB time=00:09:07.30 bitrate= 205.8kbits/s dup=1 drop=0 speed=9.02x    frame=13205 fps=216 q=32.0 size=   13848kB time=00:09:10.93 bitrate= 205.9kbits/s dup=1 drop=0 speed=9.01x    frame=13301 fps=216 q=32.0 size=   13918kB time=00:09:14.94 bitrate= 205.5kbits/s dup=1 drop=0 speed=   9x    frame=13369 fps=215 q=32.0 size=   13997kB time=00:09:17.80 bitrate= 205.6kbits/s dup=1 drop=0 speed=8.97x    frame=13421 fps=214 q=32.0 size=   14102kB time=00:09:19.93 bitrate= 206.3kbits/s dup=1 drop=0 speed=8.93x    frame=13479 fps=213 q=32.0 size=   14159kB time=00:09:22.32 bitrate= 206.3kbits/s dup=1 drop=0 speed= 8.9x    frame=13561 fps=213 q=32.0 size=   14246kB time=00:09:25.78 bitrate= 206.3kbits/s dup=1 drop=0 speed=8.88x    frame=13652 fps=213 q=32.0 size=   14318kB time=00:09:29.53 bitrate= 205.9kbits/s dup=1 drop=0 speed=8.87x    frame=13743 fps=212 q=32.0 size=   14396kB time=00:09:33.37 bitrate= 205.7kbits/s dup=1 drop=0 speed=8.86x    frame=13820 fps=212 q=32.0 size=   14477kB time=00:09:36.57 bitrate= 205.7kbits/s dup=1 drop=0 speed=8.84x    frame=13903 fps=212 q=32.0 size=   14565kB time=00:09:40.03 bitrate= 205.7kbits/s dup=1 drop=0 speed=8.83x    frame=13982 fps=211 q=32.0 size=   14662kB time=00:09:43.31 bitrate= 205.9kbits/s dup=1 drop=0 speed=8.81x    frame=14060 fps=211 q=32.0 size=   14756kB time=00:09:46.56 bitrate= 206.1kbits/s dup=1 drop=0 speed=8.79x    frame=14173 fps=211 q=32.0 size=   14847kB time=00:09:51.29 bitrate= 205.7kbits/s dup=1 drop=0 speed= 8.8x    frame=14265 fps=211 q=32.0 size=   14920kB time=00:09:55.13 bitrate= 205.4kbits/s dup=1 drop=0 speed=8.79x    frame=14361 fps=211 q=32.0 size=   15021kB time=00:09:59.14 bitrate= 205.4kbits/s dup=1 drop=0 speed=8.78x    frame=14484 fps=211 q=32.0 size=   15101kB time=00:10:04.26 bitrate= 204.7kbits/s dup=1 drop=0 speed=8.79x    frame=14599 fps=211 q=32.0 size=   15175kB time=00:10:09.04 bitrate= 204.1kbits/s dup=1 drop=0 speed=8.79x    frame=14741 fps=211 q=32.0 size=   15271kB time=00:10:15.01 bitrate= 203.4kbits/s dup=1 drop=0 speed=8.82x    frame=14821 fps=211 q=32.0 size=   15371kB time=00:10:18.30 bitrate= 203.6kbits/s dup=1 drop=0 speed= 8.8x    frame=14935 fps=211 q=32.0 size=   15455kB time=00:10:23.04 bitrate= 203.2kbits/s dup=1 drop=0 speed= 8.8x    frame=15057 fps=211 q=32.0 size=   15567kB time=00:10:28.16 bitrate= 203.0kbits/s dup=1 drop=0 speed=8.81x    frame=15162 fps=211 q=32.0 size=   15644kB time=00:10:32.55 bitrate= 202.6kbits/s dup=1 drop=0 speed=8.81x    frame=15244 fps=211 q=32.0 size=   15708kB time=00:10:35.96 bitrate= 202.3kbits/s dup=1 drop=0 speed= 8.8x    frame=15295 fps=210 q=32.0 size=   15798kB time=00:10:38.10 bitrate= 202.8kbits/s dup=1 drop=0 speed=8.77x    frame=15355 fps=210 q=32.0 size=   15901kB time=00:10:40.57 bitrate= 203.3kbits/s dup=1 drop=0 speed=8.74x    frame=15452 fps=209 q=32.0 size=   15978kB time=00:10:44.63 bitrate= 203.0kbits/s dup=1 drop=0 speed=8.74x    frame=15523 fps=209 q=32.0 size=   16086kB time=00:10:47.57 bitrate= 203.5kbits/s dup=1 drop=0 speed=8.71x    frame=15634 fps=209 q=32.0 size=   16162kB time=00:10:52.22 bitrate= 203.0kbits/s dup=1 drop=0 speed=8.72x    frame=15750 fps=209 q=32.0 size=   16247kB time=00:10:57.08 bitrate= 202.6kbits/s dup=1 drop=0 speed=8.72x    frame=15854 fps=209 q=32.0 size=   16318kB time=00:11:01.39 bitrate= 202.1kbits/s dup=1 drop=0 speed=8.72x    frame=15952 fps=209 q=32.0 size=   16410kB time=00:11:05.53 bitrate= 202.0kbits/s dup=1 drop=0 speed=8.72x    frame=16036 fps=209 q=32.0 size=   16521kB time=00:11:08.99 bitrate= 202.3kbits/s dup=1 drop=0 speed= 8.7x    frame=16152 fps=209 q=32.0 size=   16614kB time=00:11:13.81 bitrate= 202.0kbits/s dup=1 drop=0 speed=8.71x    frame=16260 fps=209 q=32.0 size=   16701kB time=00:11:18.33 bitrate= 201.7kbits/s dup=1 drop=0 speed=8.71x    frame=16363 fps=209 q=32.0 size=   16762kB time=00:11:22.64 bitrate= 201.1kbits/s dup=1 drop=0 speed=8.71x    frame=16461 fps=209 q=32.0 size=   16835kB time=00:11:26.69 bitrate= 200.8kbits/s dup=1 drop=0 speed=8.71x    frame=16580 fps=209 q=32.0 size=   16926kB time=00:11:31.69 bitrate= 200.5kbits/s dup=1 drop=0 speed=8.71x    frame=16652 fps=208 q=32.0 size=   16984kB time=00:11:34.72 bitrate= 200.3kbits/s dup=1 drop=0 speed= 8.7x    frame=16703 fps=208 q=32.0 size=   17051kB time=00:11:36.81 bitrate= 200.5kbits/s dup=1 drop=0 speed=8.67x    frame=16779 fps=207 q=32.0 size=   17132kB time=00:11:39.96 bitrate= 200.5kbits/s dup=1 drop=0 speed=8.65x    frame=16879 fps=207 q=32.0 size=   17204kB time=00:11:44.19 bitrate= 200.1kbits/s dup=1 drop=0 speed=8.65x    frame=16992 fps=207 q=32.0 size=   17298kB time=00:11:48.84 bitrate= 199.9kbits/s dup=1 drop=0 speed=8.65x    frame=17110 fps=208 q=32.0 size=   17358kB time=00:11:53.79 bitrate= 199.2kbits/s dup=1 drop=0 speed=8.66x    frame=17239 fps=208 q=32.0 size=   17464kB time=00:11:59.16 bitrate= 198.9kbits/s dup=1 drop=0 speed=8.67x    frame=17359 fps=208 q=32.0 size=   17548kB time=00:12:04.16 bitrate= 198.5kbits/s dup=1 drop=0 speed=8.67x    frame=17467 fps=208 q=32.0 size=   17636kB time=00:12:08.68 bitrate= 198.3kbits/s dup=1 drop=0 speed=8.68x    frame=17588 fps=208 q=32.0 size=   17703kB time=00:12:13.71 bitrate= 197.7kbits/s dup=1 drop=0 speed=8.68x    frame=17703 fps=208 q=32.0 size=   17785kB time=00:12:18.53 bitrate= 197.3kbits/s dup=1 drop=0 speed=8.69x    frame=17825 fps=208 q=32.0 size=   17872kB time=00:12:23.65 bitrate= 196.9kbits/s dup=1 drop=0 speed= 8.7x    frame=17955 fps=209 q=32.0 size=   17960kB time=00:12:29.03 bitrate= 196.4kbits/s dup=1 drop=0 speed=8.71x    frame=18046 fps=209 q=32.0 size=   18065kB time=00:12:32.83 bitrate= 196.6kbits/s dup=1 drop=0 speed= 8.7x    frame=18126 fps=208 q=32.0 size=   18131kB time=00:12:36.16 bitrate= 196.4kbits/s dup=1 drop=0 speed=8.69x    frame=18194 fps=208 q=32.0 size=   18202kB time=00:12:39.01 bitrate= 196.4kbits/s dup=1 drop=0 speed=8.67x    frame=18273 fps=208 q=32.0 size=   18292kB time=00:12:42.30 bitrate= 196.6kbits/s dup=1 drop=0 speed=8.66x    frame=18340 fps=207 q=32.0 size=   18387kB time=00:12:45.07 bitrate= 196.9kbits/s dup=1 drop=0 speed=8.64x    frame=18437 fps=207 q=32.0 size=   18462kB time=00:12:49.13 bitrate= 196.6kbits/s dup=1 drop=0 speed=8.64x    frame=18517 fps=207 q=32.0 size=   18514kB time=00:12:52.45 bitrate= 196.3kbits/s dup=1 drop=0 speed=8.63x    frame=18633 fps=207 q=32.0 size=   18614kB time=00:12:57.32 bitrate= 196.2kbits/s dup=1 drop=0 speed=8.63x    frame=18767 fps=207 q=32.0 size=   18715kB time=00:13:02.91 bitrate= 195.8kbits/s dup=1 drop=0 speed=8.65x    frame=18894 fps=207 q=32.0 size=   18793kB time=00:13:08.20 bitrate= 195.3kbits/s dup=1 drop=0 speed=8.66x    frame=19017 fps=208 q=32.0 size=   18893kB time=00:13:13.32 bitrate= 195.1kbits/s dup=1 drop=0 speed=8.66x    frame=19140 fps=208 q=32.0 size=   19002kB time=00:13:18.44 bitrate= 195.0kbits/s dup=1 drop=0 speed=8.67x    frame=19280 fps=208 q=32.0 size=   19093kB time=00:13:24.28 bitrate= 194.5kbits/s dup=1 drop=0 speed=8.69x    frame=19448 fps=209 q=32.0 size=   19210kB time=00:13:31.28 bitrate= 194.0kbits/s dup=1 drop=0 speed=8.72x    frame=19592 fps=209 q=32.0 size=   19303kB time=00:13:37.30 bitrate= 193.5kbits/s dup=1 drop=0 speed=8.73x    frame=19709 fps=209 q=32.0 size=   19406kB time=00:13:42.20 bitrate= 193.3kbits/s dup=1 drop=0 speed=8.74x    frame=19817 fps=209 q=32.0 size=   19485kB time=00:13:46.68 bitrate= 193.1kbits/s dup=1 drop=0 speed=8.74x    frame=19895 fps=209 q=32.0 size=   19594kB time=00:13:49.93 bitrate= 193.4kbits/s dup=1 drop=0 speed=8.73x    frame=19990 fps=209 q=32.0 size=   19684kB time=00:13:53.89 bitrate= 193.4kbits/s dup=1 drop=0 speed=8.72x    frame=20102 fps=209 q=32.0 size=   19793kB time=00:13:58.59 bitrate= 193.4kbits/s dup=1 drop=0 speed=8.72x    frame=20220 fps=209 q=32.0 size=   19880kB time=00:14:03.49 bitrate= 193.1kbits/s dup=1 drop=0 speed=8.73x    frame=20283 fps=209 q=32.0 size=   19991kB time=00:14:06.10 bitrate= 193.5kbits/s dup=1 drop=0 speed=8.71x    frame=20429 fps=209 q=32.0 size=   20082kB time=00:14:12.20 bitrate= 193.0kbits/s dup=1 drop=0 speed=8.73x    frame=20591 fps=210 q=32.0 size=   20187kB time=00:14:18.98 bitrate= 192.5kbits/s dup=1 drop=0 speed=8.75x    frame=20748 fps=210 q=32.0 size=   20273kB time=00:14:25.51 bitrate= 191.9kbits/s dup=1 drop=0 speed=8.78x    frame=20897 fps=211 q=32.0 size=   20387kB time=00:14:31.74 bitrate= 191.6kbits/s dup=1 drop=0 speed=8.79x    frame=21058 fps=211 q=32.0 size=   20490kB time=00:14:38.44 bitrate= 191.1kbits/s dup=1 drop=0 speed=8.82x    frame=21205 fps=212 q=32.0 size=   20573kB time=00:14:44.58 bitrate= 190.5kbits/s dup=1 drop=0 speed=8.83x    frame=21366 fps=212 q=32.0 size=   20682kB time=00:14:51.32 bitrate= 190.1kbits/s dup=1 drop=0 speed=8.86x    frame=21524 fps=213 q=32.0 size=   20779kB time=00:14:57.89 bitrate= 189.6kbits/s dup=1 drop=0 speed=8.88x    frame=21637 fps=213 q=32.0 size=   20881kB time=00:15:02.59 bitrate= 189.5kbits/s dup=1 drop=0 speed=8.88x    frame=21745 fps=213 q=32.0 size=   20976kB time=00:15:07.11 bitrate= 189.4kbits/s dup=1 drop=0 speed=8.88x    frame=21894 fps=213 q=32.0 size=   21069kB time=00:15:13.30 bitrate= 189.0kbits/s dup=1 drop=0 speed=8.89x    frame=22037 fps=214 q=32.0 size=   21158kB time=00:15:19.27 bitrate= 188.5kbits/s dup=1 drop=0 speed=8.91x    frame=22179 fps=214 q=32.0 size=   21254kB time=00:15:25.20 bitrate= 188.2kbits/s dup=1 drop=0 speed=8.92x    frame=22344 fps=214 q=32.0 size=   21345kB time=00:15:32.07 bitrate= 187.6kbits/s dup=1 drop=0 speed=8.94x    frame=22492 fps=215 q=32.0 size=   21429kB time=00:15:38.26 bitrate= 187.1kbits/s dup=1 drop=0 speed=8.96x    frame=22557 fps=214 q=32.0 size=   21549kB time=00:15:40.95 bitrate= 187.6kbits/s dup=1 drop=0 speed=8.94x    frame=22619 fps=214 q=32.0 size=   21638kB time=00:15:43.55 bitrate= 187.9kbits/s dup=1 drop=0 speed=8.92x    frame=22685 fps=213 q=32.0 size=   21743kB time=00:15:46.32 bitrate= 188.2kbits/s dup=1 drop=0 speed= 8.9x    frame=22789 fps=213 q=32.0 size=   21812kB time=00:15:50.63 bitrate= 188.0kbits/s dup=1 drop=0 speed= 8.9x    frame=22901 fps=213 q=32.0 size=   21870kB time=00:15:55.32 bitrate= 187.5kbits/s dup=1 drop=0 speed= 8.9x    frame=23021 fps=214 q=32.0 size=   21967kB time=00:16:00.32 bitrate= 187.4kbits/s dup=1 drop=0 speed=8.91x    frame=23167 fps=214 q=32.0 size=   22048kB time=00:16:06.42 bitrate= 186.9kbits/s dup=1 drop=0 speed=8.92x    frame=23296 fps=214 q=32.0 size=   22122kB time=00:16:11.79 bitrate= 186.5kbits/s dup=1 drop=0 speed=8.93x    frame=23389 fps=214 q=32.0 size=   22211kB time=00:16:15.68 bitrate= 186.5kbits/s dup=1 drop=0 speed=8.92x    frame=23521 fps=214 q=32.0 size=   22300kB time=00:16:21.18 bitrate= 186.2kbits/s dup=1 drop=0 speed=8.93x    frame=23609 fps=214 q=32.0 size=   22388kB time=00:16:24.85 bitrate= 186.2kbits/s dup=1 drop=0 speed=8.93x    frame=23668 fps=214 q=32.0 size=   22483kB time=00:16:27.32 bitrate= 186.5kbits/s dup=1 drop=0 speed=8.91x    frame=23732 fps=213 q=32.0 size=   22582kB time=00:16:29.97 bitrate= 186.9kbits/s dup=1 drop=0 speed=8.89x    frame=23854 fps=213 q=32.0 size=   22689kB time=00:16:35.05 bitrate= 186.8kbits/s dup=1 drop=0 speed= 8.9x    frame=23959 fps=213 q=32.0 size=   22775kB time=00:16:39.44 bitrate= 186.7kbits/s dup=1 drop=0 speed= 8.9x    frame=24073 fps=213 q=32.0 size=   22884kB time=00:16:44.22 bitrate= 186.7kbits/s dup=1 drop=0 speed= 8.9x    frame=24145 fps=213 q=32.0 size=   22918kB time=00:16:47.21 bitrate= 186.4kbits/s dup=1 drop=0 speed=8.89x    frame=24234 fps=213 q=32.0 size=   23016kB time=00:16:50.92 bitrate= 186.5kbits/s dup=1 drop=0 speed=8.88x    frame=24308 fps=213 q=32.0 size=   23096kB time=00:16:53.99 bitrate= 186.6kbits/s dup=1 drop=0 speed=8.87x    frame=24403 fps=212 q=32.0 size=   23178kB time=00:16:57.96 bitrate= 186.5kbits/s dup=1 drop=0 speed=8.86x    frame=24517 fps=213 q=32.0 size=   23232kB time=00:17:02.69 bitrate= 186.1kbits/s dup=1 drop=0 speed=8.87x    frame=24624 fps=213 q=32.0 size=   23308kB time=00:17:07.17 bitrate= 185.9kbits/s dup=1 drop=0 speed=8.86x    frame=24712 fps=212 q=32.0 size=   23389kB time=00:17:10.84 bitrate= 185.9kbits/s dup=1 drop=0 speed=8.86x    frame=24814 fps=212 q=32.0 size=   23468kB time=00:17:15.11 bitrate= 185.7kbits/s dup=1 drop=0 speed=8.86x    frame=24944 fps=213 q=32.0 size=   23525kB time=00:17:20.53 bitrate= 185.2kbits/s dup=1 drop=0 speed=8.86x    frame=25087 fps=213 q=32.0 size=   23617kB time=00:17:26.50 bitrate= 184.9kbits/s dup=1 drop=0 speed=8.88x    frame=25192 fps=213 q=32.0 size=   23712kB time=00:17:30.85 bitrate= 184.8kbits/s dup=1 drop=0 speed=8.88x    frame=25294 fps=213 q=32.0 size=   23797kB time=00:17:35.12 bitrate= 184.8kbits/s dup=1 drop=0 speed=8.88x    frame=25396 fps=213 q=32.0 size=   23867kB time=00:17:39.39 bitrate= 184.6kbits/s dup=1 drop=0 speed=8.87x    frame=25549 fps=213 q=32.0 size=   23979kB time=00:17:45.75 bitrate= 184.3kbits/s dup=1 drop=0 speed=8.89x    frame=25705 fps=213 q=32.0 size=   24050kB time=00:17:52.27 bitrate= 183.7kbits/s dup=1 drop=0 speed= 8.9x    frame=25856 fps=214 q=32.0 size=   24132kB time=00:17:58.55 bitrate= 183.3kbits/s dup=1 drop=0 speed=8.92x    frame=25983 fps=214 q=32.0 size=   24226kB time=00:18:03.88 bitrate= 183.1kbits/s dup=1 drop=0 speed=8.93x    frame=26073 fps=214 q=32.0 size=   24309kB time=00:18:07.63 bitrate= 183.1kbits/s dup=1 drop=0 speed=8.92x    frame=26219 fps=214 q=32.0 size=   24423kB time=00:18:13.73 bitrate= 182.9kbits/s dup=1 drop=0 speed=8.93x    frame=26349 fps=214 q=32.0 size=   24502kB time=00:18:19.11 bitrate= 182.6kbits/s dup=1 drop=0 speed=8.94x    frame=26496 fps=215 q=32.0 size=   24598kB time=00:18:25.25 bitrate= 182.3kbits/s dup=1 drop=0 speed=8.95x    frame=26667 fps=215 q=32.0 size=   24691kB time=00:18:32.38 bitrate= 181.8kbits/s dup=1 drop=0 speed=8.98x    frame=26823 fps=216 q=32.0 size=   24790kB time=00:18:38.91 bitrate= 181.5kbits/s dup=1 drop=0 speed=8.99x    frame=26967 fps=216 q=32.0 size=   24887kB time=00:18:44.88 bitrate= 181.2kbits/s dup=1 drop=0 speed=   9x    frame=27105 fps=216 q=32.0 size=   24978kB time=00:18:50.64 bitrate= 181.0kbits/s dup=1 drop=0 speed=9.01x    frame=27220 fps=216 q=32.0 size=   25075kB time=00:18:55.46 bitrate= 180.9kbits/s dup=1 drop=0 speed=9.02x    frame=27333 fps=216 q=32.0 size=   25146kB time=00:19:00.16 bitrate= 180.7kbits/s dup=1 drop=0 speed=9.02x    frame=27444 fps=216 q=32.0 size=   25273kB time=00:19:04.81 bitrate= 180.8kbits/s dup=1 drop=0 speed=9.02x    frame=27587 fps=216 q=32.0 size=   25378kB time=00:19:10.78 bitrate= 180.7kbits/s dup=1 drop=0 speed=9.03x    frame=27717 fps=217 q=32.0 size=   25476kB time=00:19:16.20 bitrate= 180.5kbits/s dup=1 drop=0 speed=9.04x    frame=27823 fps=217 q=32.0 size=   25561kB time=00:19:20.59 bitrate= 180.4kbits/s dup=1 drop=0 speed=9.04x    frame=27954 fps=217 q=32.0 size=   25654kB time=00:19:26.05 bitrate= 180.2kbits/s dup=1 drop=0 speed=9.04x    frame=28056 fps=217 q=32.0 size=   25750kB time=00:19:30.32 bitrate= 180.2kbits/s dup=1 drop=0 speed=9.04x    frame=28156 fps=217 q=32.0 size=   25845kB time=00:19:34.50 bitrate= 180.3kbits/s dup=1 drop=0 speed=9.04x    frame=28314 fps=217 q=32.0 size=   25947kB time=00:19:41.07 bitrate= 180.0kbits/s dup=1 drop=0 speed=9.05x    frame=28478 fps=217 q=32.0 size=   26052kB time=00:19:47.94 bitrate= 179.7kbits/s dup=1 drop=0 speed=9.07x    frame=28628 fps=218 q=32.0 size=   26160kB time=00:19:54.17 bitrate= 179.5kbits/s dup=1 drop=0 speed=9.08x    frame=28769 fps=218 q=32.0 size=   26255kB time=00:20:00.06 bitrate= 179.2kbits/s dup=1 drop=0 speed=9.09x    frame=28879 fps=218 q=32.0 size=   26365kB time=00:20:04.67 bitrate= 179.3kbits/s dup=1 drop=0 speed=9.09x    frame=29022 fps=218 q=32.0 size=   26472kB time=00:20:10.60 bitrate= 179.1kbits/s dup=1 drop=0 speed= 9.1x    frame=29164 fps=218 q=32.0 size=   26565kB time=00:20:16.53 bitrate= 178.9kbits/s dup=1 drop=0 speed=9.11x    frame=29275 fps=218 q=32.0 size=   26657kB time=00:20:21.18 bitrate= 178.8kbits/s dup=1 drop=0 speed=9.11x    frame=29403 fps=219 q=32.0 size=   26746kB time=00:20:26.51 bitrate= 178.6kbits/s dup=1 drop=0 speed=9.12x    frame=29538 fps=219 q=32.0 size=   26844kB time=00:20:32.15 bitrate= 178.5kbits/s dup=1 drop=0 speed=9.13x    frame=29650 fps=219 q=32.0 size=   26928kB time=00:20:36.80 bitrate= 178.4kbits/s dup=1 drop=0 speed=9.13x    frame=29798 fps=219 q=32.0 size=   27021kB time=00:20:42.98 bitrate= 178.1kbits/s dup=1 drop=0 speed=9.14x    frame=29930 fps=219 q=32.0 size=   27104kB time=00:20:48.44 bitrate= 177.9kbits/s dup=1 drop=0 speed=9.14x    frame=30063 fps=219 q=32.0 size=   27185kB time=00:20:54.03 bitrate= 177.6kbits/s dup=1 drop=0 speed=9.15x    frame=30129 fps=219 q=32.0 size=   27272kB time=00:20:56.76 bitrate= 177.8kbits/s dup=1 drop=0 speed=9.14x    frame=30222 fps=219 q=32.0 size=   27360kB time=00:21:00.65 bitrate= 177.8kbits/s dup=1 drop=0 speed=9.13x    frame=30305 fps=219 q=32.0 size=   27435kB time=00:21:04.10 bitrate= 177.8kbits/s dup=1 drop=0 speed=9.12x    frame=30399 fps=219 q=32.0 size=   27539kB time=00:21:08.03 bitrate= 177.9kbits/s dup=1 drop=0 speed=9.12x    frame=30489 fps=218 q=32.0 size=   27637kB time=00:21:11.78 bitrate= 178.0kbits/s dup=1 drop=0 speed=9.11x    frame=30557 fps=218 q=32.0 size=   27719kB time=00:21:14.64 bitrate= 178.1kbits/s dup=1 drop=0 speed= 9.1x    frame=30648 fps=218 q=32.0 size=   27792kB time=00:21:18.44 bitrate= 178.1kbits/s dup=1 drop=0 speed=9.09x    frame=30721 fps=218 q=32.0 size=   27860kB time=00:21:21.47 bitrate= 178.1kbits/s dup=1 drop=0 speed=9.08x    frame=30817 fps=218 q=32.0 size=   27943kB time=00:21:25.48 bitrate= 178.1kbits/s dup=1 drop=0 speed=9.08x    frame=30938 fps=218 q=32.0 size=   28016kB time=00:21:30.51 bitrate= 177.8kbits/s dup=1 drop=0 speed=9.08x    frame=31033 fps=218 q=32.0 size=   28117kB time=00:21:34.48 bitrate= 177.9kbits/s dup=1 drop=0 speed=9.07x    frame=31120 fps=217 q=32.0 size=   28215kB time=00:21:38.11 bitrate= 178.1kbits/s dup=1 drop=0 speed=9.07x    frame=31160 fps=217 q=32.0 size=   28270kB time=00:21:39.77 bitrate= 178.2kbits/s dup=1 drop=0 speed=9.05x    frame=31224 fps=217 q=32.0 size=   28400kB time=00:21:42.46 bitrate= 178.6kbits/s dup=1 drop=0 speed=9.03x    frame=31274 fps=216 q=32.0 size=   28514kB time=00:21:44.55 bitrate= 179.1kbits/s dup=1 drop=0 speed=9.01x    frame=31326 fps=216 q=32.0 size=   28628kB time=00:21:46.68 bitrate= 179.5kbits/s dup=1 drop=0 speed=8.99x    frame=31386 fps=215 q=32.0 size=   28752kB time=00:21:49.20 bitrate= 179.9kbits/s dup=1 drop=0 speed=8.98x    frame=31442 fps=215 q=29.0 size=   28864kB time=00:21:51.55 bitrate= 180.3kbits/s dup=1 drop=0 speed=8.96x    frame=31504 fps=214 q=32.0 size=   28993kB time=00:21:54.15 bitrate= 180.7kbits/s dup=1 drop=0 speed=8.95x    frame=31542 fps=214 q=32.0 size=   29145kB time=00:21:55.73 bitrate= 181.5kbits/s dup=1 drop=0 speed=8.93x    frame=31572 fps=213 q=32.0 size=   29261kB time=00:21:56.97 bitrate= 182.0kbits/s dup=1 drop=0 speed= 8.9x    frame=31641 fps=213 q=32.0 size=   29375kB time=00:21:59.83 bitrate= 182.3kbits/s dup=1 drop=0 speed=8.89x    frame=31713 fps=213 q=32.0 size=   29484kB time=00:22:02.85 bitrate= 182.6kbits/s dup=1 drop=0 speed=8.88x    frame=31769 fps=213 q=32.0 size=   29591kB time=00:22:05.16 bitrate= 182.9kbits/s dup=1 drop=0 speed=8.87x    frame=31845 fps=212 q=32.0 size=   29727kB time=00:22:08.36 bitrate= 183.3kbits/s dup=1 drop=0 speed=8.86x    frame=31912 fps=212 q=32.0 size=   29843kB time=00:22:11.17 bitrate= 183.6kbits/s dup=1 drop=0 speed=8.85x    frame=32007 fps=212 q=32.0 size=   29945kB time=00:22:15.10 bitrate= 183.7kbits/s dup=1 drop=0 speed=8.84x    frame=32085 fps=212 q=32.0 size=   30078kB time=00:22:18.34 bitrate= 184.1kbits/s dup=1 drop=0 speed=8.83x    frame=32185 fps=212 q=32.0 size=   30188kB time=00:22:22.52 bitrate= 184.2kbits/s dup=1 drop=0 speed=8.83x    frame=32269 fps=212 q=32.0 size=   30306kB time=00:22:26.02 bitrate= 184.4kbits/s dup=1 drop=0 speed=8.82x    frame=32339 fps=211 q=32.0 size=   30427kB time=00:22:28.97 bitrate= 184.8kbits/s dup=1 drop=0 speed=8.81x    frame=32390 fps=211 q=32.0 size=   30557kB time=00:22:31.10 bitrate= 185.3kbits/s dup=1 drop=0 speed= 8.8x    frame=32463 fps=211 q=32.0 size=   30663kB time=00:22:34.13 bitrate= 185.5kbits/s dup=1 drop=0 speed=8.79x    frame=32524 fps=210 q=32.0 size=   30809kB time=00:22:36.65 bitrate= 186.0kbits/s dup=1 drop=0 speed=8.78x    frame=32579 fps=210 q=32.0 size=   30947kB time=00:22:38.95 bitrate= 186.6kbits/s dup=1 drop=0 speed=8.76x    frame=32653 fps=210 q=32.0 size=   31065kB time=00:22:42.07 bitrate= 186.8kbits/s dup=1 drop=0 speed=8.75x    frame=32701 fps=209 q=32.0 size=   31198kB time=00:22:44.07 bitrate= 187.4kbits/s dup=1 drop=0 speed=8.74x    frame=32766 fps=209 q=32.0 size=   31342kB time=00:22:46.76 bitrate= 187.9kbits/s dup=1 drop=0 speed=8.73x    frame=32826 fps=209 q=32.0 size=   31468kB time=00:22:49.28 bitrate= 188.3kbits/s dup=1 drop=0 speed=8.72x    frame=32911 fps=209 q=32.0 size=   31581kB time=00:22:52.82 bitrate= 188.5kbits/s dup=1 drop=0 speed=8.71x    frame=32991 fps=209 q=32.0 size=   31697kB time=00:22:56.15 bitrate= 188.7kbits/s dup=1 drop=0 speed= 8.7x    frame=33059 fps=208 q=32.0 size=   31789kB time=00:22:59.00 bitrate= 188.8kbits/s dup=1 drop=0 speed=8.69x    frame=33167 fps=208 q=32.0 size=   31879kB time=00:23:03.48 bitrate= 188.8kbits/s dup=1 drop=0 speed=8.69x    frame=33286 fps=209 q=32.0 size=   32007kB time=00:23:08.48 bitrate= 188.8kbits/s dup=1 drop=0 speed= 8.7x    frame=33356 fps=208 q=32.0 size=   32113kB time=00:23:11.38 bitrate= 189.1kbits/s dup=1 drop=0 speed=8.69x    frame=33414 fps=208 q=32.0 size=   32202kB time=00:23:13.81 bitrate= 189.3kbits/s dup=1 drop=0 speed=8.68x    frame=33469 fps=208 q=32.0 size=   32287kB time=00:23:16.11 bitrate= 189.5kbits/s dup=1 drop=0 speed=8.66x    frame=33538 fps=207 q=32.0 size=   32416kB time=00:23:18.97 bitrate= 189.8kbits/s dup=1 drop=0 speed=8.65x    frame=33626 fps=207 q=32.0 size=   32535kB time=00:23:22.64 bitrate= 190.0kbits/s dup=1 drop=0 speed=8.65x    frame=33727 fps=207 q=32.0 size=   32663kB time=00:23:26.87 bitrate= 190.2kbits/s dup=1 drop=0 speed=8.65x    frame=33829 fps=207 q=32.0 size=   32738kB time=00:23:31.09 bitrate= 190.1kbits/s dup=1 drop=0 speed=8.65x    frame=33897 fps=207 q=32.0 size=   32884kB time=00:23:33.91 bitrate= 190.5kbits/s dup=1 drop=0 speed=8.64x    frame=33985 fps=207 q=32.0 size=   32960kB time=00:23:37.62 bitrate= 190.5kbits/s dup=1 drop=0 speed=8.63x    frame=34044 fps=207 q=32.0 size=   33095kB time=00:23:40.09 bitrate= 190.9kbits/s dup=1 drop=0 speed=8.62x    frame=34108 fps=206 q=32.0 size=   33206kB time=00:23:42.74 bitrate= 191.2kbits/s dup=1 drop=0 speed=8.61x    frame=34188 fps=206 q=32.0 size=   33298kB time=00:23:46.07 bitrate= 191.3kbits/s dup=1 drop=0 speed= 8.6x    frame=34266 fps=206 q=32.0 size=   33386kB time=00:23:49.35 bitrate= 191.3kbits/s dup=1 drop=0 speed=8.59x    frame=34320 fps=206 q=32.0 size=   33494kB time=00:23:51.57 bitrate= 191.7kbits/s dup=1 drop=0 speed=8.58x    frame=34374 fps=205 q=32.0 size=   33644kB time=00:23:53.83 bitrate= 192.2kbits/s dup=1 drop=0 speed=8.57x    frame=34437 fps=205 q=32.0 size=   33744kB time=00:23:56.48 bitrate= 192.4kbits/s dup=1 drop=0 speed=8.56x    frame=34492 fps=205 q=32.0 size=   33862kB time=00:23:58.74 bitrate= 192.8kbits/s dup=1 drop=0 speed=8.55x    frame=34561 fps=205 q=32.0 size=   33980kB time=00:24:01.64 bitrate= 193.1kbits/s dup=1 drop=0 speed=8.54x    frame=34641 fps=205 q=32.0 size=   34110kB time=00:24:04.97 bitrate= 193.4kbits/s dup=1 drop=0 speed=8.53x    frame=34711 fps=204 q=32.0 size=   34224kB time=00:24:07.91 bitrate= 193.6kbits/s dup=1 drop=0 speed=8.52x    frame=34770 fps=204 q=32.0 size=   34314kB time=00:24:10.34 bitrate= 193.8kbits/s dup=1 drop=0 speed=8.51x    frame=34834 fps=204 q=32.0 size=   34410kB time=00:24:13.03 bitrate= 194.0kbits/s dup=1 drop=0 speed= 8.5x    frame=34932 fps=204 q=32.0 size=   34508kB time=00:24:17.13 bitrate= 194.0kbits/s dup=1 drop=0 speed= 8.5x    frame=35028 fps=204 q=32.0 size=   34610kB time=00:24:21.09 bitrate= 194.0kbits/s dup=1 drop=0 speed= 8.5x    frame=35122 fps=204 q=32.0 size=   34677kB time=00:24:25.02 bitrate= 193.9kbits/s dup=1 drop=0 speed= 8.5x    [mp4 @ 0x359dd40] Starting second pass: moving the moov atom to the beginning of the file
frame=35191 fps=203 q=-1.0 Lsize=   35636kB time=00:24:27.71 bitrate= 198.9kbits/s dup=1 drop=0 speed=8.48x    
video:25620kB audio:9181kB subtitle:0kB other streams:0kB global headers:0kB muxing overhead: 2.397930%
[libx264 @ 0x360e6a0] frame I:261   Avg QP:20.10  size: 13463
[libx264 @ 0x360e6a0] frame P:10436 Avg QP:22.11  size:  1749
[libx264 @ 0x360e6a0] frame B:24494 Avg QP:25.76  size:   182
[libx264 @ 0x360e6a0] consecutive B-frames:  2.0% 14.8%  2.6% 80.6%
[libx264 @ 0x360e6a0] mb I  I16..4: 34.6% 49.6% 15.9%
[libx264 @ 0x360e6a0] mb P  I16..4:  5.0%  4.2%  0.7%  P16..4: 21.0%  2.9%  2.5%  0.1%  0.0%    skip:63.5%
[libx264 @ 0x360e6a0] mb B  I16..4:  0.2%  0.1%  0.0%  B16..8:  7.6%  0.5%  0.1%  direct: 0.2%  skip:91.4%  L0:39.7% L1:58.6% BI: 1.6%
[libx264 @ 0x360e6a0] 8x8 transform intra:43.5% inter:64.0%
[libx264 @ 0x360e6a0] coded y,uvDC,uvAC intra: 23.0% 57.5% 14.9% inter: 0.7% 3.0% 0.1%
[libx264 @ 0x360e6a0] i16 v,h,dc,p: 46% 30% 18%  6%
[libx264 @ 0x360e6a0] i8 v,h,dc,ddl,ddr,vr,hd,vl,hu: 23% 17% 45%  3%  2%  3%  2%  3%  3%
[libx264 @ 0x360e6a0] i4 v,h,dc,ddl,ddr,vr,hd,vl,hu: 29% 19% 21%  5%  5%  6%  6%  5%  4%
[libx264 @ 0x360e6a0] i8c dc,h,v,p: 41% 27% 27%  5%
[libx264 @ 0x360e6a0] Weighted P-Frames: Y:1.1% UV:0.9%
[libx264 @ 0x360e6a0] ref P L0: 68.4%  8.9% 10.2%  3.5%  2.6%  2.4%  2.3%  1.5%  0.2%  0.0%
[libx264 @ 0x360e6a0] ref B L0: 86.3%  5.2%  4.6%  1.1%  0.9%  1.3%  0.6%
[libx264 @ 0x360e6a0] ref B L1: 97.6%  2.4%
[libx264 @ 0x360e6a0] kb/s:142.99
